<?xml version="1.0" standalone="no"?>
<!DOCTYPE svg PUBLIC "-//W3C//DTD SVG 20010904//EN"
 "http://www.w3.org/TR/2001/REC-SVG-20010904/DTD/svg10.dtd">
<svg version="1.0" xmlns="http://www.w3.org/2000/svg"
 width="500.000000pt" height="500.000000pt" viewBox="0 0 500.000000 500.000000"
 preserveAspectRatio="xMidYMid meet">
<metadata>
Created by potrace 1.14, written by Peter Selinger 2001-2017
</metadata>
<g transform="translate(0.000000,500.000000) scale(0.100000,-0.100000)"
fill="#000000" stroke="none">
<path d="M1782 3879 c-81 -14 -170 -47 -247 -91 -56 -33 -145 -116 -448 -417
-208 -207 -401 -403 -427 -437 -187 -233 -209 -540 -58 -799 33 -56 116 -145
417 -448 207 -208 403 -401 437 -427 33 -27 92 -65 131 -84 135 -68 147 -69
568 -73 l380 -4 -209 210 -210 210 -41 -24 c-71 -42 -157 -59 -233 -45 -36 6
-83 20 -106 32 -50 24 -806 774 -841 833 -13 22 -32 69 -40 104 -14 53 -15 74
-5 129 6 36 20 83 32 106 12 26 165 186 412 434 415 417 432 431 545 452 69
13 159 -2 221 -36 l44 -25 206 206 205 205 -340 -1 c-187 -1 -364 -5 -393 -10z"/>
<path d="M2995 3875 c-83 -15 -174 -50 -250 -96 -36 -22 -200 -179 -478 -459
-416 -417 -424 -427 -465 -510 -56 -115 -74 -193 -73 -315 0 -121 25 -225 77
-328 34 -65 79 -113 473 -508 391 -390 443 -439 506 -471 119 -61 204 -82 330
-82 131 0 205 17 325 76 83 41 94 50 516 472 l431 431 46 92 c62 125 81 217
75 352 -6 122 -37 229 -95 326 -50 84 -809 847 -910 915 -152 102 -327 138
-508 105z m275 -366 c59 -27 99 -64 451 -417 448 -449 444 -443 444 -597 -1
-156 5 -149 -443 -597 -359 -359 -392 -389 -456 -419 -60 -28 -81 -33 -145
-32 -117 1 -173 27 -282 130 l-90 86 199 201 c216 219 260 278 306 418 64 192
35 417 -76 589 -23 37 -124 148 -235 260 l-194 196 83 79 c46 44 104 90 129
102 101 49 203 49 309 1z m-357 -869 c28 -57 32 -74 31 -145 -1 -135 -21 -167
-247 -393 l-192 -192 -187 187 c-230 233 -243 254 -243 398 0 144 13 165 243
398 l187 187 188 -187 c154 -155 194 -199 220 -253z"/>
</g>
</svg>
