<svg width="304" height="304" viewBox="0 0 304 304" fill="none" xmlns="http://www.w3.org/2000/svg">
<path d="M141.982 260.818L63.5636 214.527C61.0303 212.685 58.9576 210.439 57.3455 207.791C55.7333 205.142 54.9273 202.206 54.9273 198.982V107.436C54.9273 104.212 55.6182 101.276 57 98.6273C58.3818 95.9788 60.5697 93.7333 63.5636 91.8909L143.364 44.5636C146.358 42.7212 149.236 41.8 152 41.8C154.764 41.8 157.642 42.7212 160.636 44.5636L240.436 91.8909C243.2 93.7333 245.33 95.9788 246.827 98.6273C248.324 101.276 249.073 104.212 249.073 107.436V198.982C249.073 202.206 248.267 205.142 246.655 207.791C245.042 210.439 242.97 212.685 240.436 214.527L160.636 260.818C157.642 262.661 154.533 263.582 151.309 263.582C148.085 263.582 144.976 262.661 141.982 260.818ZM141.636 236.291V158.909L76 121.255V196.909L141.636 236.291ZM162.364 236.291L228.345 196.909V121.255L162.364 158.909V236.291ZM0 65.2909V38.6909C0 28.097 3.8 19 11.4 11.4C19 3.8 28.097 0 38.6909 0H65.2909V20.7273H38.6909C33.6242 20.7273 29.3636 22.4545 25.9091 25.9091C22.4545 29.3636 20.7273 33.6242 20.7273 38.6909V65.2909H0ZM38.6909 304C28.097 304 19 300.2 11.4 292.6C3.8 285 0 275.903 0 265.309V238.709H20.7273V265.309C20.7273 270.376 22.4545 274.636 25.9091 278.091C29.3636 281.545 33.6242 283.273 38.6909 283.273H65.2909V304H38.6909ZM238.709 302.618V281.891H265.309C270.376 281.891 274.636 280.164 278.091 276.709C281.545 273.255 283.273 268.994 283.273 263.927V237.327H304V263.927C304 274.521 300.2 283.618 292.6 291.218C285 298.818 275.903 302.618 265.309 302.618H238.709ZM283.273 65.2909V38.6909C283.273 33.6242 281.545 29.3636 278.091 25.9091C274.636 22.4545 270.376 20.7273 265.309 20.7273H238.709V0H265.309C275.903 0 285 3.8 292.6 11.4C300.2 19 304 28.097 304 38.6909V65.2909H283.273ZM152 140.255L217.636 102.255L152 64.6L86.3636 102.255L152 140.255Z" fill="white"/>
</svg>
