<svg width="309" height="309" viewBox="0 0 309 309" fill="none" xmlns="http://www.w3.org/2000/svg">
<path d="M92.7 247.2C75.705 247.2 61.9545 261.105 61.9545 278.1C61.9545 295.095 75.705 309 92.7 309C109.695 309 123.6 295.095 123.6 278.1C123.6 261.105 109.695 247.2 92.7 247.2ZM0 0V30.9H30.9L86.52 148.166L65.6625 186.018C63.1905 190.344 61.8 195.442 61.8 200.85C61.8 217.845 75.705 231.75 92.7 231.75H278.1V200.85H99.189C97.026 200.85 95.3265 199.15 95.3265 196.987L95.79 195.133L109.695 169.95H224.798C236.385 169.95 246.582 163.616 251.835 154.037L307.146 53.766C308.382 51.603 309 48.9765 309 46.35C309 37.8525 302.047 30.9 293.55 30.9H65.0445L50.5215 0H0ZM247.2 247.2C230.205 247.2 216.455 261.105 216.455 278.1C216.455 295.095 230.205 309 247.2 309C264.195 309 278.1 295.095 278.1 278.1C278.1 261.105 264.195 247.2 247.2 247.2Z" fill="white"/>
</svg>
