<svg width="150" height="150" viewBox="0 0 150 150" fill="none" xmlns="http://www.w3.org/2000/svg">
<path d="M45 120C36.75 120 30.075 126.75 30.075 135C30.075 143.25 36.75 150 45 150C53.25 150 60 143.25 60 135C60 126.75 53.25 120 45 120ZM120 120C111.75 120 105.075 126.75 105.075 135C105.075 143.25 111.75 150 120 150C128.25 150 135 143.25 135 135C135 126.75 128.25 120 120 120ZM53.25 82.5H109.125C114.75 82.5 119.7 79.425 122.25 74.775L150 22.2L136.875 15L109.125 67.5H56.475L24.525 0H0V15H15L42 71.925L31.875 90.225C26.4 100.275 33.6 112.5 45 112.5H135V97.5H45L53.25 82.5ZM82.5 0L112.5 30L82.5 60L71.925 49.425L83.775 37.5H52.5V22.5H83.775L71.85 10.575L82.5 0Z" fill="white"/>
</svg>
