<svg width="95" height="150" viewBox="0 0 95 150" fill="none" xmlns="http://www.w3.org/2000/svg">
<path d="M0 131.5L2.08333 150L15.5833 137.167L38.6667 73.8333C33 72.4167 28 69.5833 23.9167 65.6667L0 131.5ZM70.0833 65.6667C66 69.5833 60.9167 72.4167 55.3333 73.8333L78.4167 137.167L91.9167 150L94.0833 131.5L70.0833 65.6667ZM72 41.6667C72 30.8333 65 21.6667 55.3333 18.1667V0H38.6667V18.1667C29 21.6667 22 30.8333 22 41.6667C22 55.5 33.1667 66.6667 47 66.6667C60.8333 66.6667 72 55.5 72 41.6667ZM47 50C42.4167 50 38.6667 46.25 38.6667 41.6667C38.6667 37.0833 42.4167 33.3333 47 33.3333C51.5833 33.3333 55.3333 37.0833 55.3333 41.6667C55.3333 46.25 51.5833 50 47 50Z" fill="white"/>
</svg>
