<svg width="237" height="238" viewBox="0 0 237 238" fill="none" xmlns="http://www.w3.org/2000/svg">
<path d="M148.73 142.12L165.73 112.71C166.75 110.84 166.41 108.63 164.71 107.27L146.69 93.16C147.2 90.61 147.37 87.72 147.37 85C147.37 82.28 147.2 79.39 146.69 76.67L164.71 62.56C166.24 61.2 166.75 58.99 165.73 57.12L148.73 27.71C147.71 25.84 145.5 25.16 143.46 25.84L122.38 34.34C117.96 30.94 113.2 28.22 108.1 26.01L104.87 3.57C104.53 1.53 102.66 0 100.62 0H66.62C64.58 0 62.71 1.53 62.37 3.57L59.14 26.18C54.04 28.39 49.11 31.11 44.86 34.51L23.78 26.01C21.91 25.33 19.7 26.01 18.51 27.88L1.51003 57.29C0.490035 58.99 1.00003 61.37 2.53003 62.73L20.55 76.84C20.04 79.39 19.87 82.28 19.87 85C19.87 87.72 20.04 90.61 20.55 93.33L2.53003 107.44C1.00003 108.8 0.490035 111.18 1.51003 112.88L18.51 142.29C19.53 144.16 21.74 144.84 23.78 144.16L44.86 135.66C49.28 139.06 54.04 141.78 59.14 143.99L62.37 166.43C62.71 168.47 64.58 170 66.62 170H100.62C102.66 170 104.53 168.47 104.87 166.43L108.1 143.99C113.2 141.78 118.13 139.06 122.38 135.66L143.46 144.16C145.5 144.67 147.54 143.99 148.73 142.12ZM83.62 110.5C69.51 110.5 58.12 98.94 58.12 85C58.12 70.89 69.51 59.5 83.62 59.5C97.56 59.5 109.12 70.89 109.12 85C109.12 98.94 97.56 110.5 83.62 110.5Z" fill="white"/>
<path d="M235.77 200.43L224.89 191.93C225.06 190.23 225.23 188.7 225.23 187C225.23 185.3 225.06 183.6 224.89 182.07L235.77 173.57C236.62 172.72 236.96 171.36 236.45 170.34L226.25 152.66C225.57 151.47 224.38 151.13 223.02 151.47L210.44 156.57C207.72 154.53 205 152.83 201.77 151.64L199.9 138.21C199.56 136.85 198.37 136 197.18 136H176.78C175.59 136 174.4 136.85 174.23 138.21L172.36 151.64C169.3 153 166.41 154.53 163.69 156.57L151.11 151.47C149.92 151.13 148.73 151.47 147.88 152.66L137.68 170.34C137 171.53 137.34 172.72 138.36 173.57L149.24 182.07C149.07 183.77 148.9 185.3 148.9 187C148.9 188.7 149.07 190.4 149.24 191.93L138.36 200.43C137.51 201.28 137.17 202.64 137.68 203.66L147.88 221.34C148.56 222.53 149.75 222.87 151.11 222.53L163.69 217.43C166.41 219.47 169.13 221.17 172.36 222.36L174.23 235.79C174.4 237.15 175.42 238 176.78 238H197.18C198.37 238 199.56 237.15 199.73 235.79L201.6 222.36C204.66 221 207.55 219.47 210.1 217.43L222.85 222.53C224.04 222.87 225.23 222.53 226.08 221.34L236.28 203.66C236.96 202.64 236.62 201.28 235.77 200.43ZM188 204C178.65 204 171 196.35 171 187C171 177.65 178.65 170 188 170C197.35 170 205 177.65 205 187C205 196.35 197.35 204 188 204Z" fill="white"/>
</svg>
