<svg xmlns="http://www.w3.org/2000/svg" viewBox="0 0 1448.53327 323.54395"><defs><style>.cls-1{fill:#1a1a1a;}</style></defs><title>Asset 2</title><g id="Layer_2" data-name="Layer 2"><g id="Layer_1-2" data-name="Layer 1"><path class="cls-1" d="M499.18525,234.6033V86.89688H533.019V234.6033Zm98.14537,0V146.60053q0-14.8007-9.216-22.93983-9.24105-8.15165-22.78957-8.13912A35.75761,35.75761,0,0,0,548.8715,119.203a28.91416,28.91416,0,0,0-11.545,10.61843c-2.88,4.608-4.30748,10.21774-4.30748,16.77913l-13.223-7.38783q0-16.9419,7.38782-29.25078a52.29,52.29,0,0,1,19.9847-19.23338,57.98673,57.98673,0,0,1,28.32417-6.912,58.92132,58.92132,0,0,1,28.29912,6.76174,51.259,51.259,0,0,1,20.00974,19.08312q7.40034,12.32139,7.38782,29.5513v95.3906Zm98.17042,0V146.60053q0-14.8007-9.216-22.93983-9.241-8.15165-22.78957-8.13912a36.09071,36.09071,0,0,0-16.3033,3.68139,28.51647,28.51647,0,0,0-11.6953,10.61843c-2.88,4.608-4.30748,10.21774-4.30748,16.77913l-19.08313-7.38783q1.54019-16.9419,9.84209-29.25078a58.89851,58.89851,0,0,1,21.38713-19.23338,60.7436,60.7436,0,0,1,28.77495-6.912,61.43377,61.43377,0,0,1,28.92521,6.76174,52.9414,52.9414,0,0,1,20.63582,19.08312q7.66331,12.32139,7.68835,29.5513v95.3906Z"/><path class="cls-1" d="M781.37512,59.79985a19.12436,19.12436,0,0,1-14.32487-5.83513,19.98875,19.98875,0,0,1-5.68487-14.47513,19.97123,19.97123,0,0,1,5.68487-14.45009,19.14494,19.14494,0,0,1,14.32487-5.86017c5.9353,0,10.76869,1.95339,14.45008,5.86017a20.16029,20.16029,0,0,1,5.53461,14.45009,20.17861,20.17861,0,0,1-5.53461,14.47513C792.14381,57.8715,787.31042,59.79985,781.37512,59.79985ZM764.44573,234.6033V86.89688H798.3045V234.6033Z"/><path class="cls-1" d="M836.14519,234.6033V86.89688h33.83374V234.6033Zm33.83374-82.16764-11.6953-5.83513q0-28.02364,12.47165-45.40382Q883.22693,83.804,908.4457,83.81654a45.18413,45.18413,0,0,1,36.63861,16.92939l-22.16348,22.76451a23.38505,23.38505,0,0,0-8.94052-6.16069,32.32631,32.32631,0,0,0-11.36974-1.82817q-14.16207,0-23.3906,8.91547Q869.97893,133.37758,869.97893,152.43566Z"/><path class="cls-1" d="M1017.68534,237.68364A66.36577,66.36577,0,0,1,981.54761,227.516a72.52836,72.52836,0,0,1-25.54435-27.52278q-9.3913-17.39268-9.3913-38.9426,0-21.82539,9.3913-39.24312a73.884,73.884,0,0,1,25.54435-27.673,65.65014,65.65014,0,0,1,36.13773-10.31791q16.94191,0,30.02712,7.23756a55.03378,55.03378,0,0,1,20.761,19.83443,53.84592,53.84592,0,0,1,7.68835,28.62469V181.987a54.66477,54.66477,0,0,1-7.53808,28.62469,53.62417,53.62417,0,0,1-20.761,19.83443Q1034.60221,237.65861,1017.68534,237.68364Zm5.55965-32.00556q18.745,0,30.3026-12.62191,11.53253-12.62192,11.54505-32.30608a50.448,50.448,0,0,0-5.23409-23.3906,39.07227,39.07227,0,0,0-14.62539-15.85252,41.72762,41.72762,0,0,0-21.98817-5.68487,41.17405,41.17405,0,0,0-21.71269,5.68487,40.0613,40.0613,0,0,0-14.75061,15.85252,48.99993,48.99993,0,0,0-5.40939,23.3906,49.07008,49.07008,0,0,0,5.40939,23.3906,40.0613,40.0613,0,0,0,14.75061,15.85252A41.17405,41.17405,0,0,0,1023.245,205.67808Zm39.69391,28.92522V194.90939l5.83513-36.01252-5.83513-35.687v-36.313h33.83373V234.6033Z"/><path class="cls-1" d="M1194.342,231.523a66.79606,66.79606,0,0,1-35.56174-9.69183,68.44355,68.44355,0,0,1-24.91825-26.62121q-9.0908-16.90434-9.06574-37.84069,0-20.92382,9.06574-37.54017a69.00872,69.00872,0,0,1,24.91825-26.32069,66.79614,66.79614,0,0,1,35.56174-9.69182q17.54295,0,30.77843,7.0873a51.82122,51.82122,0,0,1,20.61077,19.53391q7.3628,12.47164,7.38783,29.07547v36.313a55.47433,55.47433,0,0,1-7.53809,28.92521,52.61706,52.61706,0,0,1-20.78608,19.68417Q1211.57192,231.53547,1194.342,231.523Zm1.52765,67.69251q-23.36556,0-40.921-8.43965a72.3335,72.3335,0,0,1-28.32417-23.86643l22.16348-22.13843a59.78954,59.78954,0,0,0,20.31025,16.60382q11.38227,5.55965,27.39756,5.53461,19.98469,0,31.68-10.29287,11.72034-10.33044,11.6953-28.17391v-36.313l5.86017-32.6066-5.86017-32.93217V86.89688h33.85878V228.4426q0,21.22434-9.84209,37.08939a67.544,67.544,0,0,1-27.39756,24.768Q1218.94722,299.24051,1195.86966,299.21546Zm5.23408-99.69807c8.21426,0,15.3767-1.728,21.53739-5.23409A36.37112,36.37112,0,0,0,1236.966,179.683q5.07131-9.39131,5.05878-22.01322,0-12.6219-5.05878-22.01321a36.52835,36.52835,0,0,0-14.32487-14.60035,43.00071,43.00071,0,0,0-21.53739-5.23408,43.84828,43.84828,0,0,0-21.68765,5.23408,37.10939,37.10939,0,0,0-14.62538,14.60035q-5.22158,9.3913-5.23409,22.01321a44.63822,44.63822,0,0,0,5.23409,21.83791,36.75326,36.75326,0,0,0,14.62538,14.77565A43.58185,43.58185,0,0,0,1201.10374,199.51739Z"/><path class="cls-1" d="M1379.91415,237.68364q-22.16348,0-39.86921-9.99234a74.64691,74.64691,0,0,1-27.99861-27.54783q-10.29286-17.54295-10.29286-39.39338,0-21.863,10.1426-39.24312a75.49992,75.49992,0,0,1,66.16486-37.69043q20.6233,0,36.4633,9.54156a68.06107,68.06107,0,0,1,24.9433,26.14539q9.05322,16.64139,9.06574,37.86573a65.02661,65.02661,0,0,1-.45078,7.53809c-.32557,2.55443-.77635,5.38434-1.40244,8.46469H1325.44459V145.67392h103.705l-12.62191,11.06921q-.60105-13.52347-5.23409-22.76451a33.00432,33.00432,0,0,0-13.07269-14.14957q-8.45217-4.921-20.78608-4.93356-12.92244,0-22.464,5.53461a37.915,37.915,0,0,0-14.75061,15.552c-3.50608,6.66157-5.23408,14.60035-5.23408,23.84139s1.82817,17.33009,5.5346,24.31721a39.0479,39.0479,0,0,0,15.70226,16.15305c6.76174,3.8066,14.55026,5.68486,23.39061,5.68486a54.49007,54.49007,0,0,0,21.06156-4.00695,44.18214,44.18214,0,0,0,16.47861-11.67026l21.53738,21.83791a69.08134,69.08134,0,0,1-26.17043,19.08313A83.34171,83.34171,0,0,1,1379.91415,237.68364Z"/><path class="cls-1" d="M187.1286,274.57373a40.77919,40.77919,0,0,1-54.23633-3.0708L52.00262,190.61328a40.83513,40.83513,0,0,1,0-57.6831l80.88965-80.88965a40.80611,40.80611,0,0,1,53.05908-3.98828L234.00311.00049H161.73383a80.34827,80.34827,0,0,0-57.19214,23.68945L23.65228,104.57959a80.97256,80.97256,0,0,0,0,114.38428l80.88941,80.88965A80.34827,80.34827,0,0,0,161.73383,323.543H236.114c-.22436-.22022-.45215-.436-.6748-.65869Z"/><path class="cls-1" d="M441.53973,104.57959l-80.8894-80.89014a80.88294,80.88294,0,0,0-114.38452,0L165.3764,104.57959a80.97479,80.97479,0,0,0,0,114.38428l80.88941,80.88965a80.88057,80.88057,0,0,0,114.38452,0l80.8894-80.88965a80.882,80.882,0,0,0,0-114.38428ZM193.727,132.93018,232.59589,94.061,271.465,132.93018a40.83513,40.83513,0,0,1,0,57.6831l-38.8689,38.86914L193.727,190.61328A40.83557,40.83557,0,0,1,193.727,132.93018Zm219.46216,57.68261-80.88941,80.89014a40.52212,40.52212,0,0,1-28.84155,11.94678v-.00049h-.02a40.52359,40.52359,0,0,1-28.82178-11.94629L260.94647,257.833l38.86914-38.86914a80.97522,80.97522,0,0,0,0-114.38428L260.94647,65.71045l13.66992-13.66992A40.5226,40.5226,0,0,1,303.4455,40.09424h.01269v-.00049a40.52093,40.52093,0,0,1,28.84155,11.94678l80.88941,80.88965a40.78817,40.78817,0,0,1,0,57.68261Z"/></g></g></svg>