<svg width="466" height="324" viewBox="0 0 466 324" fill="none" xmlns="http://www.w3.org/2000/svg">
<g clip-path="url(#clip0_3_14)">
<path d="M187.1 274.6C179.9 280.3 171 283.5 161.7 283.5C150.8 283.5 140.6 279.3 132.9 271.6L52 190.6C36.1 174.7 36.1 148.8 52 132.9L132.9 52C140.6 44.3 150.8 40.1 161.7 40.1C170.5 40.1 178.9 42.9 185.9 48.1L234 0H161.7C140.1 0 119.8 8.4 104.5 23.7L23.6 104.6C-7.90002 136.1 -7.90002 187.4 23.6 219L104.5 299.9C119.8 315.2 140.1 323.6 161.7 323.6H236.1C235.9 323.4 235.6 323.2 235.4 322.9L187.1 274.6Z" fill="white"/>
<path d="M441.5 104.6L360.6 23.7C345.4 8.4 325.1 0 303.5 0C281.9 0 261.6 8.4 246.3 23.7L165.4 104.6C149.6 120.4 141.7 141.1 141.7 161.8C141.7 182.5 149.6 203.2 165.4 219L246.3 299.9C261.6 315.2 281.9 323.6 303.5 323.6C325.1 323.6 345.4 315.2 360.7 299.9L441.6 219C456.9 203.7 465.3 183.4 465.3 161.8C465.3 140.2 456.8 119.9 441.5 104.6ZM193.7 132.9L232.6 94L271.5 132.9C287.4 148.8 287.4 174.7 271.5 190.6L232.6 229.5L193.7 190.6C177.8 174.7 177.8 148.8 193.7 132.9ZM413.2 190.6L332.3 271.5C324.6 279.2 314.4 283.4 303.5 283.4C292.6 283.4 282.4 279.2 274.7 271.5L261 257.8L299.9 218.9C331.4 187.4 331.4 136.1 299.9 104.5L261 65.6L274.6 52C282.3 44.3 292.5 40.1 303.4 40.1C314.3 40.1 324.5 44.3 332.2 52L413.1 132.9C420.8 140.6 425 150.8 425 161.7C425.1 172.7 420.9 182.9 413.2 190.6Z" fill="white"/>
</g>
<defs>
<clipPath id="clip0_3_14">
<rect width="465.2" height="323.5" fill="white"/>
</clipPath>
</defs>
</svg>
