<svg width="303" height="303" viewBox="0 0 303 303" fill="none" xmlns="http://www.w3.org/2000/svg">
<path d="M30.3 33.6667C30.3 15.15 43.935 0 60.6 0C77.265 0 90.9 15.15 90.9 33.6667C90.9 52.1833 77.265 67.3333 60.6 67.3333C43.935 67.3333 30.3 52.1833 30.3 33.6667ZM102.717 93.93C89.4327 87.4881 75.0944 84.163 60.6 84.163C46.1056 84.163 31.7673 87.4881 18.483 93.93C12.9943 96.5367 8.31619 100.878 5.03008 106.415C1.74396 111.952 -0.00520685 118.439 1.16427e-05 125.072V134.667H121.2V125.072C121.2 111.437 113.928 99.3167 102.717 93.93V93.93ZM242.4 67.3333C259.065 67.3333 272.7 52.1833 272.7 33.6667C272.7 15.15 259.065 0 242.4 0C225.735 0 212.1 15.15 212.1 33.6667C212.1 52.1833 225.735 67.3333 242.4 67.3333ZM284.517 93.93C271.233 87.4881 256.894 84.163 242.4 84.163C227.906 84.163 213.567 87.4881 200.283 93.93C194.794 96.5367 190.116 100.878 186.83 106.415C183.544 111.952 181.795 118.439 181.8 125.072V134.667H303V125.072C303 111.437 295.728 99.3167 284.517 93.93ZM303 235.667L242.4 168.333V218.833H60.6V168.333L1.16427e-05 235.667L60.6 303V252.5H242.4V303L303 235.667Z" fill="white"/>
</svg>
