<svg width="167" height="150" viewBox="0 0 167 150" fill="none" xmlns="http://www.w3.org/2000/svg">
<path d="M16.6667 16.6667C16.6667 7.5 24.1667 0 33.3333 0C42.5 0 50 7.5 50 16.6667C50 25.8333 42.5 33.3333 33.3333 33.3333C24.1667 33.3333 16.6667 25.8333 16.6667 16.6667ZM56.5 46.5C49.1929 43.3109 41.3061 41.6648 33.3333 41.6648C25.3606 41.6648 17.4738 43.3109 10.1667 46.5C7.1476 47.7904 4.57436 49.9397 2.76682 52.6807C0.959272 55.4216 -0.00286405 58.6334 6.40412e-06 61.9167V66.6667H66.6667V61.9167C66.6667 55.1667 62.6667 49.1667 56.5 46.5ZM133.333 33.3333C142.5 33.3333 150 25.8333 150 16.6667C150 7.5 142.5 0 133.333 0C124.167 0 116.667 7.5 116.667 16.6667C116.667 25.8333 124.167 33.3333 133.333 33.3333ZM156.5 46.5C149.193 43.3109 141.306 41.6648 133.333 41.6648C125.361 41.6648 117.474 43.3109 110.167 46.5C107.148 47.7904 104.574 49.9397 102.767 52.6807C100.959 55.4216 99.9971 58.6334 100 61.9167V66.6667H166.667V61.9167C166.667 55.1667 162.667 49.1667 156.5 46.5ZM166.667 116.667L133.333 83.3333V108.333H33.3333V83.3333L6.40412e-06 116.667L33.3333 150V125H133.333V150L166.667 116.667Z" fill="white"/>
</svg>
