<svg width="309" height="278" viewBox="0 0 309 278" fill="none" xmlns="http://www.w3.org/2000/svg">
<path d="M306.709 90.8042L290.521 23.4333C287.13 9.55833 275.105 0 261.076 0H46.9381C33.0631 0 20.884 9.7125 17.6465 23.4333L1.45896 90.8042C-2.24104 106.529 1.15063 122.563 11.0173 135.204C12.2506 136.9 13.9465 138.133 15.334 139.675V246.667C15.334 263.625 29.209 277.5 46.1673 277.5H262.001C278.959 277.5 292.834 263.625 292.834 246.667V139.675C294.221 138.288 295.917 136.9 297.151 135.358C307.017 122.717 310.563 106.529 306.709 90.8042ZM260.613 30.6792L276.801 98.05C278.342 104.525 276.955 111 272.946 116.087C270.788 118.862 266.163 123.333 258.455 123.333C249.051 123.333 240.88 115.779 239.801 105.758L230.859 30.8333L260.613 30.6792ZM169.501 30.8333H199.717L208.042 100.517C208.813 106.529 206.963 112.542 202.955 117.013C199.563 121.021 194.63 123.333 188.309 123.333C177.98 123.333 169.501 114.237 169.501 103.137V30.8333ZM99.9715 100.517L108.451 30.8333H138.667V103.137C138.667 114.237 130.188 123.333 118.78 123.333C113.538 123.333 108.759 121.021 105.059 117.013C101.205 112.542 99.3548 106.529 99.9715 100.517ZM31.3673 98.05L46.9381 30.8333H77.309L68.3673 105.758C67.134 115.779 59.1173 123.333 49.7131 123.333C42.159 123.333 37.3798 118.862 35.3756 116.087C31.2131 111.154 29.8256 104.525 31.3673 98.05ZM46.1673 246.667V153.704C47.4006 153.858 48.4798 154.167 49.7131 154.167C63.1256 154.167 75.3048 148.617 84.2465 139.521C93.4965 148.771 105.83 154.167 119.859 154.167C133.271 154.167 145.296 148.617 154.238 139.829C163.334 148.617 175.667 154.167 189.542 154.167C202.492 154.167 214.826 148.771 224.076 139.521C233.017 148.617 245.196 154.167 258.609 154.167C259.842 154.167 260.921 153.858 262.155 153.704V246.667H46.1673Z" fill="white"/>
</svg>
